<?xml version="1.0" encoding="UTF-8" standalone="no"?>
<!DOCTYPE svg PUBLIC "-//W3C//DTD SVG 1.1//EN"
 "http://www.w3.org/Graphics/SVG/1.1/DTD/svg11.dtd">
<!-- Generated by graphviz version 9.0.0 (20230911.1827)
 -->
<!-- Title: gocallvis Pages: 1 -->
<svg width="1665pt" height="741pt"
 viewBox="0.00 0.00 1664.60 740.75" xmlns="http://www.w3.org/2000/svg" xmlns:xlink="http://www.w3.org/1999/xlink">
<g id="graph0" class="graph" transform="scale(1 1) rotate(0) translate(0 740.75)">
<title>gocallvis</title>
<polygon fill="lightgray" stroke="none" points="0,0 0,-740.75 1664.6,-740.75 1664.6,0 0,0"/>
<text text-anchor="middle" x="85.62" y="-6.45" font-family="Arial" font-size="14.00">command&#45;line&#45;arguments</text>
<g id="clust1" class="cluster">
<title>cluster_focus</title>
<polygon fill="#e6ecfa" stroke="black" stroke-width="0.5" points="8,-31.75 8,-732.75 1656.6,-732.75 1656.6,-31.75 8,-31.75"/>
<text text-anchor="middle" x="832.3" y="-711.65" font-family="Arial" font-size="18.00">main</text>
</g>
<g id="clust2" class="cluster">
<title>cluster_google.golang.org/grpc</title>
<g id="a_clust2"><a xlink:href="/?f=google.golang.org/grpc" xlink:title="package: google.golang.org/grpc">
<polygon fill="lightyellow" stroke="black" stroke-width="0.8" points="471.88,-39.75 471.88,-180.75 608.32,-180.75 608.32,-39.75 471.88,-39.75"/>
<text text-anchor="middle" x="540.1" y="-161.55" font-family="Tahoma bold" font-size="16.00">grpc</text>
</a>
</g>
</g>
<g id="clust3" class="cluster">
<title>cluster_henry_grpc/proto</title>
<g id="a_clust3"><a xlink:href="/?f=henry_grpc/proto" xlink:title="package: henry_grpc/proto">
<polygon fill="lightyellow" stroke="black" stroke-width="0.8" points="431,-188.75 431,-695.75 649.2,-695.75 649.2,-188.75 431,-188.75"/>
<text text-anchor="middle" x="540.1" y="-676.55" font-family="Tahoma bold" font-size="16.00">henry_grpc</text>
</a>
</g>
</g>
<!-- (*command&#45;line&#45;arguments.serverHello).SayHello -->
<g id="node1" class="node">
<title>(*command&#45;line&#45;arguments.serverHello).SayHello</title>
<g id="a_node1"><a xlink:title="(*command&#45;line&#45;arguments.serverHello).SayHello | defined in main.go:32&#10;at main.go:34: calling [command&#45;line&#45;arguments.InternalFunc]&#10;at main.go:33: calling [(*henry_grpc/proto.HelloRequest).GetName]&#10;at main.go:35: calling [(*henry_grpc/proto.HelloRequest).GetName]">
<path fill="lightblue" stroke="black" stroke-width="1.5" d="M1171.15,-351.75C1171.15,-351.75 1022.2,-351.75 1022.2,-351.75 1016.2,-351.75 1010.2,-345.75 1010.2,-339.75 1010.2,-339.75 1010.2,-327.75 1010.2,-327.75 1010.2,-321.75 1016.2,-315.75 1022.2,-315.75 1022.2,-315.75 1171.15,-315.75 1171.15,-315.75 1177.15,-315.75 1183.15,-321.75 1183.15,-327.75 1183.15,-327.75 1183.15,-339.75 1183.15,-339.75 1183.15,-345.75 1177.15,-351.75 1171.15,-351.75"/>
<text text-anchor="middle" x="1096.67" y="-329.07" font-family="Verdana" font-size="14.00">(*serverHello).SayHello</text>
</a>
</g>
</g>
<!-- command&#45;line&#45;arguments.InternalFunc -->
<g id="node2" class="node">
<title>command&#45;line&#45;arguments.InternalFunc</title>
<g id="a_node2"><a xlink:title="command&#45;line&#45;arguments.InternalFunc | defined in main.go:27">
<path fill="lightblue" stroke="black" stroke-width="1.5" d="M1636.6,-457.75C1636.6,-457.75 1564.15,-457.75 1564.15,-457.75 1558.15,-457.75 1552.15,-451.75 1552.15,-445.75 1552.15,-445.75 1552.15,-433.75 1552.15,-433.75 1552.15,-427.75 1558.15,-421.75 1564.15,-421.75 1564.15,-421.75 1636.6,-421.75 1636.6,-421.75 1642.6,-421.75 1648.6,-427.75 1648.6,-433.75 1648.6,-433.75 1648.6,-445.75 1648.6,-445.75 1648.6,-451.75 1642.6,-457.75 1636.6,-457.75"/>
<text text-anchor="middle" x="1600.38" y="-435.07" font-family="Verdana" font-size="14.00">InternalFunc</text>
</a>
</g>
</g>
<!-- (*command&#45;line&#45;arguments.serverHello).SayHello&#45;&gt;command&#45;line&#45;arguments.InternalFunc -->
<g id="edge1" class="edge">
<title>(*command&#45;line&#45;arguments.serverHello).SayHello&#45;&gt;command&#45;line&#45;arguments.InternalFunc</title>
<g id="a_edge1"><a xlink:title="at main.go:34: calling [command&#45;line&#45;arguments.InternalFunc]">
<path fill="none" stroke="black" d="M1146.52,-352.22C1177.47,-362.3 1218.61,-372.75 1256.15,-372.75 1256.15,-372.75 1256.15,-372.75 1479.15,-372.75 1514.59,-372.75 1549.32,-395.24 1572.26,-414.16"/>
<polygon fill="black" stroke="black" points="1569.74,-416.6 1579.6,-420.46 1574.3,-411.29 1569.74,-416.6"/>
</a>
</g>
</g>
<!-- (*henry_grpc/proto.HelloRequest).GetName -->
<g id="node7" class="node">
<title>(*henry_grpc/proto.HelloRequest).GetName</title>
<g id="a_node7"><a xlink:title="(*henry_grpc/proto.HelloRequest).GetName | defined in henry_grpc.pb.go:63">
<path fill="moccasin" stroke="black" stroke-width="1.5" d="M622.82,-232.75C622.82,-232.75 457.37,-232.75 457.37,-232.75 451.37,-232.75 445.37,-226.75 445.37,-220.75 445.37,-220.75 445.37,-208.75 445.37,-208.75 445.37,-202.75 451.37,-196.75 457.37,-196.75 457.37,-196.75 622.82,-196.75 622.82,-196.75 628.82,-196.75 634.82,-202.75 634.82,-208.75 634.82,-208.75 634.82,-220.75 634.82,-220.75 634.82,-226.75 628.82,-232.75 622.82,-232.75"/>
<text text-anchor="middle" x="540.1" y="-210.07" font-family="Verdana" font-size="14.00">(*HelloRequest).GetName</text>
</a>
</g>
</g>
<!-- (*command&#45;line&#45;arguments.serverHello).SayHello&#45;&gt;(*henry_grpc/proto.HelloRequest).GetName -->
<g id="edge7" class="edge">
<title>(*command&#45;line&#45;arguments.serverHello).SayHello&#45;&gt;(*henry_grpc/proto.HelloRequest).GetName</title>
<g id="a_edge7"><a xlink:title="at main.go:33: calling [(*henry_grpc/proto.HelloRequest).GetName]&#10;at main.go:35: calling [(*henry_grpc/proto.HelloRequest).GetName]">
<path fill="none" stroke="saddlebrown" d="M1080.68,-315.51C1054.74,-286.18 998.39,-231.75 937.2,-231.75 714.2,-231.75 714.2,-231.75 714.2,-231.75 692.24,-231.75 668.79,-230.38 646.47,-228.41"/>
<polygon fill="saddlebrown" stroke="saddlebrown" points="647.05,-224.95 636.77,-227.51 646.41,-231.92 647.05,-224.95"/>
</a>
</g>
</g>
<!-- (*command&#45;line&#45;arguments.serverHi).SayHi -->
<g id="node3" class="node">
<title>(*command&#45;line&#45;arguments.serverHi).SayHi</title>
<g id="a_node3"><a xlink:title="(*command&#45;line&#45;arguments.serverHi).SayHi | defined in main.go:38&#10;at main.go:39: calling [(*henry_grpc/proto.HiRequest).GetName]&#10;at main.go:41: calling [(*henry_grpc/proto.HiRequest).GetName]&#10;at main.go:40: calling [command&#45;line&#45;arguments.InternalFunc]">
<path fill="lightblue" stroke="black" stroke-width="1.5" d="M1150.9,-567.75C1150.9,-567.75 1042.45,-567.75 1042.45,-567.75 1036.45,-567.75 1030.45,-561.75 1030.45,-555.75 1030.45,-555.75 1030.45,-543.75 1030.45,-543.75 1030.45,-537.75 1036.45,-531.75 1042.45,-531.75 1042.45,-531.75 1150.9,-531.75 1150.9,-531.75 1156.9,-531.75 1162.9,-537.75 1162.9,-543.75 1162.9,-543.75 1162.9,-555.75 1162.9,-555.75 1162.9,-561.75 1156.9,-567.75 1150.9,-567.75"/>
<text text-anchor="middle" x="1096.67" y="-545.08" font-family="Verdana" font-size="14.00">(*serverHi).SayHi</text>
</a>
</g>
</g>
<!-- (*command&#45;line&#45;arguments.serverHi).SayHi&#45;&gt;command&#45;line&#45;arguments.InternalFunc -->
<g id="edge4" class="edge">
<title>(*command&#45;line&#45;arguments.serverHi).SayHi&#45;&gt;command&#45;line&#45;arguments.InternalFunc</title>
<g id="a_edge4"><a xlink:title="at main.go:40: calling [command&#45;line&#45;arguments.InternalFunc]">
<path fill="none" stroke="black" d="M1142.27,-531.33C1173.58,-520.04 1216.73,-507.75 1256.15,-507.75 1256.15,-507.75 1256.15,-507.75 1479.15,-507.75 1514.93,-507.75 1549.84,-484.65 1572.74,-465.38"/>
<polygon fill="black" stroke="black" points="1574.84,-468.19 1580.06,-458.97 1570.23,-462.93 1574.84,-468.19"/>
</a>
</g>
</g>
<!-- (*henry_grpc/proto.HiRequest).GetName -->
<g id="node9" class="node">
<title>(*henry_grpc/proto.HiRequest).GetName</title>
<g id="a_node9"><a xlink:title="(*henry_grpc/proto.HiRequest).GetName | defined in henry_grpc.pb.go:157">
<path fill="moccasin" stroke="black" stroke-width="1.5" d="M612.7,-537.75C612.7,-537.75 467.5,-537.75 467.5,-537.75 461.5,-537.75 455.5,-531.75 455.5,-525.75 455.5,-525.75 455.5,-513.75 455.5,-513.75 455.5,-507.75 461.5,-501.75 467.5,-501.75 467.5,-501.75 612.7,-501.75 612.7,-501.75 618.7,-501.75 624.7,-507.75 624.7,-513.75 624.7,-513.75 624.7,-525.75 624.7,-525.75 624.7,-531.75 618.7,-537.75 612.7,-537.75"/>
<text text-anchor="middle" x="540.1" y="-515.08" font-family="Verdana" font-size="14.00">(*HiRequest).GetName</text>
</a>
</g>
</g>
<!-- (*command&#45;line&#45;arguments.serverHi).SayHi&#45;&gt;(*henry_grpc/proto.HiRequest).GetName -->
<g id="edge3" class="edge">
<title>(*command&#45;line&#45;arguments.serverHi).SayHi&#45;&gt;(*henry_grpc/proto.HiRequest).GetName</title>
<g id="a_edge3"><a xlink:title="at main.go:39: calling [(*henry_grpc/proto.HiRequest).GetName]&#10;at main.go:41: calling [(*henry_grpc/proto.HiRequest).GetName]">
<path fill="none" stroke="saddlebrown" d="M1030.03,-536.51C1001.62,-531.85 967.89,-527.75 937.2,-527.75 714.2,-527.75 714.2,-527.75 714.2,-527.75 689.02,-527.75 661.81,-526.9 636.58,-525.74"/>
<polygon fill="saddlebrown" stroke="saddlebrown" points="636.81,-522.25 626.66,-525.27 636.48,-529.24 636.81,-522.25"/>
</a>
</g>
</g>
<!-- command&#45;line&#45;arguments.main -->
<g id="node4" class="node">
<title>command&#45;line&#45;arguments.main</title>
<g id="a_node4"><a xlink:title="command&#45;line&#45;arguments.main | defined in main.go:44&#10;at main.go:51: calling [henry_grpc/proto.RegisterHelloServer]&#10;at main.go:50: calling [google.golang.org/grpc.NewServer]&#10;at main.go:56: calling [google.golang.org/grpc.NewServer]&#10;at main.go:53: calling [(*google.golang.org/grpc.Server).Serve]&#10;at main.go:59: calling [(*google.golang.org/grpc.Server).Serve]&#10;at main.go:57: calling [henry_grpc/proto.RegisterHiServer]">
<path fill="lightblue" stroke="black" stroke-width="0.5" d="M58,-211.75C58,-211.75 28,-211.75 28,-211.75 22,-211.75 16,-205.75 16,-199.75 16,-199.75 16,-187.75 16,-187.75 16,-181.75 22,-175.75 28,-175.75 28,-175.75 58,-175.75 58,-175.75 64,-175.75 70,-181.75 70,-187.75 70,-187.75 70,-199.75 70,-199.75 70,-205.75 64,-211.75 58,-211.75"/>
<text text-anchor="middle" x="43" y="-189.07" font-family="Verdana" font-size="14.00">main</text>
</a>
</g>
</g>
<!-- google.golang.org/grpc.NewServer -->
<g id="node5" class="node">
<title>google.golang.org/grpc.NewServer</title>
<g id="a_node5"><a xlink:title="google.golang.org/grpc.NewServer | defined in server.go:599">
<path fill="moccasin" stroke="black" stroke-width="1.5" d="M569.95,-83.75C569.95,-83.75 510.25,-83.75 510.25,-83.75 504.25,-83.75 498.25,-77.75 498.25,-71.75 498.25,-71.75 498.25,-59.75 498.25,-59.75 498.25,-53.75 504.25,-47.75 510.25,-47.75 510.25,-47.75 569.95,-47.75 569.95,-47.75 575.95,-47.75 581.95,-53.75 581.95,-59.75 581.95,-59.75 581.95,-71.75 581.95,-71.75 581.95,-77.75 575.95,-83.75 569.95,-83.75"/>
<text text-anchor="middle" x="540.1" y="-61.08" font-family="Verdana" font-size="14.00">NewServer</text>
</a>
</g>
</g>
<!-- command&#45;line&#45;arguments.main&#45;&gt;google.golang.org/grpc.NewServer -->
<g id="edge9" class="edge">
<title>command&#45;line&#45;arguments.main&#45;&gt;google.golang.org/grpc.NewServer</title>
<g id="a_edge9"><a xlink:title="at main.go:50: calling [google.golang.org/grpc.NewServer]&#10;at main.go:56: calling [google.golang.org/grpc.NewServer]">
<path fill="none" stroke="saddlebrown" d="M54.27,-175.94C69.97,-151.28 102.43,-109.75 143,-109.75 143,-109.75 143,-109.75 366,-109.75 378.2,-109.75 440.82,-93.12 487.26,-80.31"/>
<polygon fill="saddlebrown" stroke="saddlebrown" points="487.92,-83.76 496.62,-77.71 486.05,-77.01 487.92,-83.76"/>
</a>
</g>
</g>
<!-- (*google.golang.org/grpc.Server).Serve -->
<g id="node6" class="node">
<title>(*google.golang.org/grpc.Server).Serve</title>
<g id="a_node6"><a xlink:title="(*google.golang.org/grpc.Server).Serve | defined in server.go:778">
<path fill="moccasin" stroke="black" stroke-width="1.5" d="M588.32,-144.75C588.32,-144.75 491.87,-144.75 491.87,-144.75 485.87,-144.75 479.87,-138.75 479.87,-132.75 479.87,-132.75 479.87,-120.75 479.87,-120.75 479.87,-114.75 485.87,-108.75 491.87,-108.75 491.87,-108.75 588.32,-108.75 588.32,-108.75 594.32,-108.75 600.32,-114.75 600.32,-120.75 600.32,-120.75 600.32,-132.75 600.32,-132.75 600.32,-138.75 594.32,-144.75 588.32,-144.75"/>
<text text-anchor="middle" x="540.1" y="-122.08" font-family="Verdana" font-size="14.00">(*Server).Serve</text>
</a>
</g>
</g>
<!-- command&#45;line&#45;arguments.main&#45;&gt;(*google.golang.org/grpc.Server).Serve -->
<g id="edge10" class="edge">
<title>command&#45;line&#45;arguments.main&#45;&gt;(*google.golang.org/grpc.Server).Serve</title>
<g id="a_edge10"><a xlink:title="at main.go:53: calling [(*google.golang.org/grpc.Server).Serve]&#10;at main.go:59: calling [(*google.golang.org/grpc.Server).Serve]">
<path fill="none" stroke="saddlebrown" d="M69.75,-177.02C89.1,-166.06 116.68,-153.75 143,-153.75 143,-153.75 143,-153.75 366,-153.75 400,-153.75 437.3,-148.6 468.55,-142.8"/>
<polygon fill="saddlebrown" stroke="saddlebrown" points="469.13,-146.26 478.29,-140.93 467.81,-139.38 469.13,-146.26"/>
</a>
</g>
</g>
<!-- henry_grpc/proto.RegisterHelloServer -->
<g id="node11" class="node">
<title>henry_grpc/proto.RegisterHelloServer</title>
<g id="a_node11"><a xlink:title="henry_grpc/proto.RegisterHelloServer | defined in henry_grpc_grpc.pb.go:69">
<path fill="moccasin" stroke="black" stroke-width="1.5" d="M601.07,-354.75C601.07,-354.75 479.12,-354.75 479.12,-354.75 473.12,-354.75 467.12,-348.75 467.12,-342.75 467.12,-342.75 467.12,-330.75 467.12,-330.75 467.12,-324.75 473.12,-318.75 479.12,-318.75 479.12,-318.75 601.07,-318.75 601.07,-318.75 607.07,-318.75 613.07,-324.75 613.07,-330.75 613.07,-330.75 613.07,-342.75 613.07,-342.75 613.07,-348.75 607.07,-354.75 601.07,-354.75"/>
<text text-anchor="middle" x="540.1" y="-332.07" font-family="Verdana" font-size="14.00">RegisterHelloServer</text>
</a>
</g>
</g>
<!-- command&#45;line&#45;arguments.main&#45;&gt;henry_grpc/proto.RegisterHelloServer -->
<g id="edge5" class="edge">
<title>command&#45;line&#45;arguments.main&#45;&gt;henry_grpc/proto.RegisterHelloServer</title>
<g id="a_edge5"><a xlink:title="at main.go:51: calling [henry_grpc/proto.RegisterHelloServer]">
<path fill="none" stroke="saddlebrown" d="M69.7,-210.9C89.01,-222.14 116.58,-234.75 143,-234.75 143,-234.75 143,-234.75 366,-234.75 409.11,-234.75 394.33,-284.08 431,-306.75 438.72,-311.52 447.2,-315.54 455.92,-318.94"/>
<polygon fill="saddlebrown" stroke="saddlebrown" points="454.62,-322.19 465.21,-322.27 456.98,-315.6 454.62,-322.19"/>
</a>
</g>
</g>
<!-- henry_grpc/proto.RegisterHiServer -->
<g id="node12" class="node">
<title>henry_grpc/proto.RegisterHiServer</title>
<g id="a_node12"><a xlink:title="henry_grpc/proto.RegisterHiServer | defined in henry_grpc_grpc.pb.go:155">
<path fill="moccasin" stroke="black" stroke-width="1.5" d="M590.95,-415.75C590.95,-415.75 489.25,-415.75 489.25,-415.75 483.25,-415.75 477.25,-409.75 477.25,-403.75 477.25,-403.75 477.25,-391.75 477.25,-391.75 477.25,-385.75 483.25,-379.75 489.25,-379.75 489.25,-379.75 590.95,-379.75 590.95,-379.75 596.95,-379.75 602.95,-385.75 602.95,-391.75 602.95,-391.75 602.95,-403.75 602.95,-403.75 602.95,-409.75 596.95,-415.75 590.95,-415.75"/>
<text text-anchor="middle" x="540.1" y="-393.07" font-family="Verdana" font-size="14.00">RegisterHiServer</text>
</a>
</g>
</g>
<!-- command&#45;line&#45;arguments.main&#45;&gt;henry_grpc/proto.RegisterHiServer -->
<g id="edge11" class="edge">
<title>command&#45;line&#45;arguments.main&#45;&gt;henry_grpc/proto.RegisterHiServer</title>
<g id="a_edge11"><a xlink:title="at main.go:57: calling [henry_grpc/proto.RegisterHiServer]">
<path fill="none" stroke="saddlebrown" d="M45.63,-211.59C50.78,-256.34 70.96,-369.75 143,-369.75 143,-369.75 143,-369.75 366,-369.75 399.08,-369.75 435.26,-374.79 465.95,-380.6"/>
<polygon fill="saddlebrown" stroke="saddlebrown" points="465.02,-383.99 475.51,-382.48 466.37,-377.12 465.02,-383.99"/>
</a>
</g>
</g>
<!-- henry_grpc/proto._Hello_SayHello_Handler -->
<g id="node8" class="node">
<title>henry_grpc/proto._Hello_SayHello_Handler</title>
<g id="a_node8"><a xlink:title="henry_grpc/proto._Hello_SayHello_Handler | defined in henry_grpc_grpc.pb.go:73&#10;at henry_grpc_grpc.pb.go:79: calling [(*command&#45;line&#45;arguments.serverHello).SayHello]">
<path fill="moccasin" stroke="black" stroke-width="0.5" d="M620.2,-293.75C620.2,-293.75 460,-293.75 460,-293.75 454,-293.75 448,-287.75 448,-281.75 448,-281.75 448,-269.75 448,-269.75 448,-263.75 454,-257.75 460,-257.75 460,-257.75 620.2,-257.75 620.2,-257.75 626.2,-257.75 632.2,-263.75 632.2,-269.75 632.2,-269.75 632.2,-281.75 632.2,-281.75 632.2,-287.75 626.2,-293.75 620.2,-293.75"/>
<text text-anchor="middle" x="540.1" y="-271.07" font-family="Verdana" font-size="14.00">_Hello_SayHello_Handler</text>
</a>
</g>
</g>
<!-- henry_grpc/proto._Hello_SayHello_Handler&#45;&gt;(*command&#45;line&#45;arguments.serverHello).SayHello -->
<g id="edge2" class="edge">
<title>henry_grpc/proto._Hello_SayHello_Handler&#45;&gt;(*command&#45;line&#45;arguments.serverHello).SayHello</title>
<g id="a_edge2"><a xlink:title="at henry_grpc_grpc.pb.go:79: calling [(*command&#45;line&#45;arguments.serverHello).SayHello]">
<path fill="none" stroke="saddlebrown" stroke-dasharray="5,2" d="M606.62,-293.65C646.41,-303.9 693.41,-314.75 714.2,-314.75 714.2,-314.75 714.2,-314.75 937.2,-314.75 957.1,-314.75 978.3,-316.24 998.51,-318.4"/>
<polygon fill="saddlebrown" stroke="saddlebrown" points="998.12,-321.87 1008.45,-319.52 998.91,-314.92 998.12,-321.87"/>
</a>
</g>
</g>
<!-- henry_grpc/proto._Hi_SayHi_Handler -->
<g id="node10" class="node">
<title>henry_grpc/proto._Hi_SayHi_Handler</title>
<g id="a_node10"><a xlink:title="henry_grpc/proto._Hi_SayHi_Handler | defined in henry_grpc_grpc.pb.go:159&#10;at henry_grpc_grpc.pb.go:165: calling [(*command&#45;line&#45;arguments.serverHi).SayHi]">
<path fill="moccasin" stroke="black" stroke-width="0.5" d="M599.95,-598.75C599.95,-598.75 480.25,-598.75 480.25,-598.75 474.25,-598.75 468.25,-592.75 468.25,-586.75 468.25,-586.75 468.25,-574.75 468.25,-574.75 468.25,-568.75 474.25,-562.75 480.25,-562.75 480.25,-562.75 599.95,-562.75 599.95,-562.75 605.95,-562.75 611.95,-568.75 611.95,-574.75 611.95,-574.75 611.95,-586.75 611.95,-586.75 611.95,-592.75 605.95,-598.75 599.95,-598.75"/>
<text text-anchor="middle" x="540.1" y="-576.08" font-family="Verdana" font-size="14.00">_Hi_SayHi_Handler</text>
</a>
</g>
</g>
<!-- henry_grpc/proto._Hi_SayHi_Handler&#45;&gt;(*command&#45;line&#45;arguments.serverHi).SayHi -->
<g id="edge8" class="edge">
<title>henry_grpc/proto._Hi_SayHi_Handler&#45;&gt;(*command&#45;line&#45;arguments.serverHi).SayHi</title>
<g id="a_edge8"><a xlink:title="at henry_grpc_grpc.pb.go:165: calling [(*command&#45;line&#45;arguments.serverHi).SayHi]">
<path fill="none" stroke="saddlebrown" stroke-dasharray="5,2" d="M611.8,-575.41C643.15,-573.47 680.5,-571.75 714.2,-571.75 714.2,-571.75 714.2,-571.75 937.2,-571.75 963.94,-571.75 992.97,-568.64 1018.8,-564.76"/>
<polygon fill="saddlebrown" stroke="saddlebrown" points="1019.2,-568.24 1028.54,-563.23 1018.12,-561.32 1019.2,-568.24"/>
</a>
</g>
</g>
<!-- henry_grpc/proto._Hi_SayHi_Handler$1 -->
<g id="node13" class="node">
<title>henry_grpc/proto._Hi_SayHi_Handler$1</title>
<g id="a_node13"><a xlink:title="henry_grpc/proto._Hi_SayHi_Handler$1 | defined in henry_grpc_grpc.pb.go:171&#10;at henry_grpc_grpc.pb.go:172: calling [(*command&#45;line&#45;arguments.serverHi).SayHi]">
<polygon fill="moccasin" stroke="black" stroke-dasharray="1,5" points="620.95,-659.75 459.25,-659.75 459.25,-623.75 620.95,-623.75 620.95,-659.75"/>
<text text-anchor="middle" x="540.1" y="-637.08" font-family="Verdana" font-size="14.00">_Hi_SayHi_Handler$1</text>
</a>
</g>
</g>
<!-- henry_grpc/proto._Hi_SayHi_Handler$1&#45;&gt;(*command&#45;line&#45;arguments.serverHi).SayHi -->
<g id="edge6" class="edge">
<title>henry_grpc/proto._Hi_SayHi_Handler$1&#45;&gt;(*command&#45;line&#45;arguments.serverHi).SayHi</title>
<g id="a_edge6"><a xlink:title="at henry_grpc_grpc.pb.go:172: calling [(*command&#45;line&#45;arguments.serverHi).SayHi]">
<path fill="none" stroke="saddlebrown" stroke-dasharray="5,2" d="M621.2,-635.85C650.45,-634.15 683.81,-632.75 714.2,-632.75 714.2,-632.75 714.2,-632.75 937.2,-632.75 987.3,-632.75 1037.19,-599.79 1067.23,-575.41"/>
<polygon fill="saddlebrown" stroke="saddlebrown" points="1069.31,-578.24 1074.74,-569.14 1064.82,-572.87 1069.31,-578.24"/>
</a>
</g>
</g>
<!-- henry_grpc/proto._Hello_SayHello_Handler$1 -->
<g id="node14" class="node">
<title>henry_grpc/proto._Hello_SayHello_Handler$1</title>
<g id="a_node14"><a xlink:title="henry_grpc/proto._Hello_SayHello_Handler$1 | defined in henry_grpc_grpc.pb.go:85&#10;at henry_grpc_grpc.pb.go:86: calling [(*command&#45;line&#45;arguments.serverHello).SayHello]">
<polygon fill="moccasin" stroke="black" stroke-dasharray="1,5" points="641.2,-476.75 439,-476.75 439,-440.75 641.2,-440.75 641.2,-476.75"/>
<text text-anchor="middle" x="540.1" y="-454.07" font-family="Verdana" font-size="14.00">_Hello_SayHello_Handler$1</text>
</a>
</g>
</g>
<!-- henry_grpc/proto._Hello_SayHello_Handler$1&#45;&gt;(*command&#45;line&#45;arguments.serverHello).SayHello -->
<g id="edge12" class="edge">
<title>henry_grpc/proto._Hello_SayHello_Handler$1&#45;&gt;(*command&#45;line&#45;arguments.serverHello).SayHello</title>
<g id="a_edge12"><a xlink:title="at henry_grpc_grpc.pb.go:86: calling [(*command&#45;line&#45;arguments.serverHello).SayHello]">
<path fill="none" stroke="saddlebrown" stroke-dasharray="5,2" d="M620.57,-440.31C630.42,-436.98 640.18,-433.14 649.2,-428.75 681.48,-413.02 678.29,-380.75 714.2,-380.75 714.2,-380.75 714.2,-380.75 937.2,-380.75 974.81,-380.75 1015.44,-368.43 1046.15,-356.41"/>
<polygon fill="saddlebrown" stroke="saddlebrown" points="1047.21,-359.75 1055.17,-352.76 1044.59,-353.27 1047.21,-359.75"/>
</a>
</g>
</g>
</g>
</svg>
